<?xml version="1.0" encoding="UTF-8"?>
<svg width="52.193mm" height="12.656mm" version="1.1" viewBox="0 0 52.193 12.656" xmlns="http://www.w3.org/2000/svg">
 <g transform="translate(-37.078 -128.81)">
  <g stroke-width=".87151" aria-label="Send">
   <path d="m41.563 141.44q-0.89364 0-1.6937-0.17022-0.80002-0.17021-1.4979-0.51065-0.68938-0.34043-1.2936-0.85109l1.0809-1.3277q0.7064 0.61278 1.5575 0.91917t1.8469 0.30639q1.3447 0 2.0852-0.49363 0.74044-0.50214 0.74044-1.4128v-9e-3q0-0.64682-0.34044-1.0213-0.33192-0.38299-0.86811-0.56172-0.52767-0.18724-1.3702-0.34043-0.02553-9e-3 -0.05958-9e-3 -0.02553 0-0.05107-9e-3l-0.12766-0.0255q-1.2426-0.21277-2.0256-0.47661-0.77449-0.27234-1.3277-0.97875-0.55321-0.71491-0.55321-2.0256v-9e-3q0-1.149 0.51065-1.9575 0.51916-0.81704 1.5064-1.2426 0.98726-0.42555 2.3745-0.42555 0.66385 0 1.3022 0.14469 0.64682 0.14468 1.2681 0.43405 0.6298 0.28086 1.2341 0.71491l-0.98726 1.3788q-0.7064-0.51916-1.4128-0.77449-0.69789-0.26383-1.4043-0.26383-1.2681 0-1.9745 0.51065-0.69789 0.50214-0.69789 1.4298v9e-3q0 0.63832 0.35746 1.0043 0.36597 0.36596 0.90215 0.54469 0.5447 0.17022 1.5064 0.35746 0.03404 9e-3 0.05958 0.017 0.03404 0 0.06809 9e-3 0.04256 9e-3 0.09362 0.017 0.05107 9e-3 0.09362 0.017 1.1234 0.2298 1.8724 0.5447 0.75747 0.3149 1.2596 1.0213 0.51065 0.69789 0.51065 1.915v0.017q0 1.1319-0.53618 1.9405-0.53618 0.80002-1.5575 1.2256-1.0128 0.41703-2.4511 0.41703z"/>
   <path d="m52.015 141.44q-1.2256 0-2.0937-0.45959-0.86811-0.45958-1.3277-1.3447-0.45108-0.89364-0.45108-2.1532v-0.99577q0-1.3107 0.43405-2.2384 0.44256-0.92768 1.2766-1.4128 0.83406-0.48512 2.0086-0.48512 1.1064 0 1.8894 0.55321 0.783 0.5532 1.1915 1.6 0.41703 1.0468 0.41703 2.5107v0.57874h-5.9576v-1.3958h4.3065q-0.0766-1.0809-0.56172-1.6766-0.47661-0.60427-1.2851-0.60427-0.98726 0-1.532 0.64682-0.53618 0.64683-0.53618 1.8298v1.1234q0 1.0979 0.57874 1.6852 0.57874 0.58725 1.6426 0.58725 0.52767 0 1.0468-0.21277 0.51916-0.21277 0.92768-0.59576l1.1405 1.1405q-0.65534 0.6298-1.4724 0.97875-0.81704 0.34043-1.6426 0.34043z"/>
   <path d="m57.76 132.48h1.7362v8.8343h-1.7362zm5.3618 3.481q0-0.9362-0.48512-1.4468t-1.3617-0.51065q-0.85109 0-1.3192 0.45107-0.45959 0.45108-0.45959 1.2681l-0.17873-1.7022q0.40852-0.80002 1.0639-1.2341 0.66385-0.43405 1.4639-0.43405 1.4383 0 2.2213 0.94471 0.79151 0.93619 0.79151 2.6554v5.3618h-1.7362z"/>
   <path d="m72.517 128.94h1.7362v12.375h-1.7362zm-2.2213 12.528q-0.97024 0-1.6596-0.41703-0.68087-0.42554-1.0383-1.2341-0.35746-0.80854-0.35746-1.9405v-1.949q0-1.1404 0.34894-1.949 0.34894-0.80853 1.0128-1.2256 0.67236-0.42554 1.6086-0.42554 0.783 0 1.4298 0.40852 0.65534 0.40852 1.0553 1.149l-0.17873 1.8043q0-0.56172-0.20426-0.96173-0.20426-0.40001-0.59576-0.60427-0.38299-0.21277-0.93619-0.21277-0.8596 0-1.3362 0.53618-0.4681 0.53619-0.4681 1.5064v1.9235q0 0.96173 0.4681 1.4894 0.47661 0.51916 1.3362 0.51916 0.55321 0 0.93619-0.21277 0.3915-0.22128 0.59576-0.6298 0.20426-0.40852 0.20426-0.97875l0.11915 1.8639q-0.26384 0.65533-0.86811 1.0979-0.59576 0.44256-1.4724 0.44256z"/>
  </g>
  <path d="m88.732 135.53-7.4348 4.2925v-8.5849z" fill="#fbfbfb" stroke="#000" stroke-linecap="round" stroke-linejoin="round" stroke-width="1.0792"/>
 </g>
</svg>
