<?xml version="1.0" encoding="UTF-8"?>
<svg width="65.358mm" height="23.839mm" version="1.1" viewBox="0 0 65.358 23.839" xmlns="http://www.w3.org/2000/svg">
 <path d="m61.91 16.534-7.4348 4.2925v-8.5849z" stroke="#000" stroke-linecap="round" stroke-linejoin="round" stroke-width="1.0792"/>
 <g transform="matrix(1.2426 0 0 1.2426 .74497 5.4182)" stroke-width=".63638" aria-label="Send">
  <path d="m13.457 10.876c-0.01273-0.53456-0.3691-0.39456-0.70002-0.21637-0.35638 0.19092-0.87821 0.26728-1.1964 0.50911-0.11455 0.10182-0.20364 0.2291-0.33092 0.31819-0.10182 0.06364-0.21637 0.08909-0.33092 0.12728-0.48365 0.14-0.87821 0.3691-1.3873 0.47092-0.63638 0.08909-1.1328 0.19092-1.4764 0.26728-0.44547 0.11455-0.70002 0.15273-0.77639 0.08909-0.076366-0.05091-0.038183-0.28001 0.15273-0.66184 0.39456-0.81457 0.35638-2.4946-0.15273-5.0529-0.076366-0.50911-0.050911-0.84003 0.089094-1.0182 0.14-0.14 0.21637-0.26728 0.21637-0.38183 0-0.10182 0.14-0.34365 0.40729-0.75093 0.29274-0.39456 0.53456-0.86548 0.72548-1.4128 0.19092-0.58547 0.30546-0.91639 0.3691-0.98003 0.12728-0.14 0.12728-0.57275 0.012728-1.3364-0.012728-0.11455-0.20364-0.25455-0.58547-0.43274s-0.6873-0.26728-0.92912-0.26728c-0.21637 0-0.39456 0.038183-0.53456 0.11455-0.14 0.076366-0.33092 0.2291-0.53456 0.43274-0.54729 0.57275-0.87821 1.0691-1.0055 1.4891-0.11455 0.40729-0.050911 0.84003 0.19092 1.2982 0.15273 0.30546 0.25455 0.77639 0.31819 1.4382l0.089094 0.99276-0.61093 0.61093c-0.2291 0.25455-0.72548 0.8273-1.4891 1.7437-0.76366 0.91639-1.2982 1.5146-1.6164 1.8201l-0.66184 0.66184-0.72548-0.40729c-0.4582-0.25455-0.73821-0.33092-0.85276-0.2291-0.10182 0.10182-0.089094 0.42001 0.038183 0.98003 0.12728 0.56002 0.14 0.94185 0.025455 1.1328-0.21637 0.34365-0.25455 0.63638-0.10182 0.86548 0.15273 0.2291 0.38183 0.24183 0.70002 0.06364 0.19092-0.12728 0.3691-0.17819 0.50911-0.14 0.14 0.03818 0.35638 0.17819 0.62366 0.43274 0.42001 0.40729 1.0055 0.64911 1.7819 0.73821 0.76366 0.10182 1.3491 0 1.7564-0.28001 0.089094-0.07637 0.16546-0.12728 0.25455-0.17819 0.089094-0.03818 0.17819-0.07637 0.26728-0.08909 0.089094-0.02546 0.19092-0.03818 0.30546-0.05091 0.11455 0 0.25455 0 0.40729 0.01273 0.57275 0.02545 1.1837-0.01273 1.8201-0.12728 0.63638-0.11455 1.5273-0.34365 2.6601-0.6873 0.31819-0.06364 0.6873-0.24183 1.0946-0.50911 0.26728-0.16546 0.43274-0.35638 0.52184-0.56002 0.31819-0.21637 0.66184-0.49638 0.66184-0.84003zm-6.962-0.089094c-0.089094 0.31819-0.34365 0.67457-0.77639 1.0819-0.24183 0.21637-0.43274 0.34365-0.56002 0.40729-0.12728 0.050911-0.28001 0.063638-0.44547 0.012727-0.33092-0.076366-0.70002-0.25455-1.0946-0.50911-0.40729-0.25455-0.5982-0.44547-0.5982-0.57275 0-0.17819 0.29274-0.56002 0.87821-1.1582 0.6873-0.76366 1.1964-1.3364 1.5401-1.7182 0.47092-0.53456 0.75093-0.77639 0.84003-0.75093 0.10182 0.038183 0.19092 0.53456 0.28001 1.4764 0.050911 0.8273 0.038183 1.4-0.063638 1.731zm0.48365-6.8984c-0.050911 0-0.11455-0.063638-0.19092-0.21637-0.12728-0.47092-0.11455-0.91639 0.025455-1.3491 0.10182-0.30546 0.26728-0.56002 0.49638-0.75093 0.31819-0.28001 0.53456-0.29274 0.62366-0.012728 0.050911 0.10182-0.063638 0.49638-0.35638 1.2091-0.29274 0.70002-0.49638 1.0819-0.5982 1.12z"/>
  <path d="m18.041 11.704c-0.19092 0.14-1.1964 0.56002-1.5528 0.67457-0.50911 0.15273-0.99276 0.26728-1.4255 0.31819-0.28001 0.05091-0.47092 0.06364-0.58547 0.03818-0.10182-0.02546-0.2291-0.08909-0.3691-0.21637-0.20364-0.20364-0.31819-0.3691-0.31819-0.47092 0-0.14 0.19092-0.56002 0.57275-1.2728 0.62366-1.1582 1.6546-2.1892 1.4382-3.6147-0.08909-0.54729-0.73821-0.6873-1.1964-0.72548-0.64911-0.050911-1.2855 0.16546-1.7437 0.62366-0.15273 0.16546-0.29274 0.35638-0.42001 0.54729-0.24183 0.33092-0.34365 0.94185-0.44547 1.3364-0.12728 0.58547-0.19092 1.0564-0.19092 1.4128 0 0.70002 0.2291 1.3873 0.49638 2.0237 0.14 0.30546 0.29274 0.63638 0.57275 0.8273 0.25455 0.17819 0.62366 0.29274 0.90367 0.44547 0.40729 0.20364 0.90367 0.17819 1.3491 0.15273 0.5982-0.02546 1.1455-0.15273 1.6673-0.3691 0 0.01273 0.30546-0.11455 0.3691-0.15273 0.21637-0.08909 0.43274-0.19092 0.62366-0.33092 0.33092-0.2291 0.95458-0.57275 0.95458-1.0309 0-0.50911-0.33092-0.50911-0.70002-0.21637zm-4.9511-0.90367c-0.06364 0-0.10182-0.07637-0.11455-0.20364-0.02546-0.12728-0.01273-0.29274 0.01273-0.49638 0.03818-0.19092 0.07637-0.39456 0.12728-0.61093 0.05091-0.21637 0.11455-0.42001 0.19092-0.62366 0.08909-0.19092 0.17819-0.34365 0.26728-0.44547 0.08909-0.12728 0.2291-0.16546 0.40729-0.12728 0.17819 0.050911 0.26728 0.15273 0.26728 0.31819 0 0.12728-0.17819 0.53456-0.52184 1.1964-0.34365 0.66184-0.56002 0.99276-0.63639 0.99276z"/>
  <path d="m17.267 11.36c-0.24183 0.3691-0.38183 0.62366-0.42001 0.77639-0.05091 0.14-0.03818 0.30546 0.02546 0.49638 0.07637 0.28001 0.20364 0.42001 0.39456 0.44547 0.12728 0.02546 0.26728 0.01273 0.42001-0.05091 0.15273-0.06364 0.28001-0.14 0.38183-0.24183 0.11455-0.10182 0.16546-0.20364 0.16546-0.29274 0-0.08909 0.30546-0.48365 0.91639-1.1455s1.2346-1.2982 1.871-1.8964c0.63638-0.5982 0.9673-0.87821 1.0182-0.8273 0.03818 0.050911-0.02546 0.3691-0.20364 0.9673-0.19092 0.57275-0.28001 1.1455-0.28001 1.6801 0 0.38183 0.02546 0.63638 0.08909 0.76366 0.06364 0.12728 0.28001 0.38183 0.62366 0.72548 0.44547 0.44547 0.8273 0.71275 1.1582 0.78912 0.31819 0.08909 0.70002 0.03818 1.1328-0.16546 0.24183-0.11455 0.63638-0.30546 1.2091-0.56002 0.21637-0.08909 0.42001-0.20364 0.62366-0.34365 0.19092-0.14 0.3691-0.28001 0.52184-0.42001s0.26728-0.26728 0.35638-0.40729c0.08909-0.12728 0.14-0.24183 0.14-0.34365 0-0.24183-0.06364-0.3691-0.17819-0.38183-0.12728-0.01273-0.31819 0.08909-0.5982 0.30546-0.38183 0.30546-0.89094 0.62366-1.5528 0.9673-0.64911 0.33092-1.0819 0.50911-1.2855 0.50911-0.14 0-0.28001-0.07637-0.44547-0.20364-0.16546-0.12728-0.30546-0.29274-0.42001-0.49638s-0.16546-0.38183-0.16546-0.54729c0-0.24183 0.11455-0.67457 0.33092-1.311 0.2291-0.62366 0.42001-1.0437 0.57275-1.26 0.19092-0.24183 0.28001-0.49638 0.28001-0.78912-0.012729-0.28001-0.11455-0.50911-0.31819-0.70002-0.15273-0.14-0.28001-0.21637-0.38183-0.24183-0.10182-0.012728-0.31819 0.025455-0.66184 0.10182-0.84003 0.17819-1.451 0.40729-1.8455 0.6873-0.21637 0.16546-0.35638 0.2291-0.42001 0.2291-0.12728-0.025455-0.063638-0.40729-0.20364-0.49638-0.26728-0.16546-0.72548 0.038183-0.91639 0.2291-0.05091 0.050911-0.08909 0.10182-0.14 0.15273-0.73821 0.89094-1.1837 2.3292-1.7946 3.2965z"/>
  <path d="m36.182 11.169c-0.38183 0.30546-0.89094 0.62366-1.5528 0.9673-0.06364 0.03818-0.14 0.05091-0.21637 0.08909-0.26728 0.06364-0.54729 0.14-0.81457 0.14-0.30546 0-0.53456-0.08909-0.6873-0.26728-0.16546-0.17819-0.26728-0.47092-0.31819-0.86548-0.16546-1.3364 0.34365-2.851 0.89094-4.0601 0.21637-0.47092 0.34365-0.99276 0.5982-1.451 0.72548-1.2855 2.9401-3.6019 2.5201-5.2311-0.38183-1.4382-1.4637 0.6873-1.8201 1.26-0.70002 1.1073-1.4 2.2273-2.1001 3.3347-0.54729 0.85276-0.49638 1.6037-1.6037 1.6291-0.66184 0-1.1328 0.076366-1.4128 0.24183-0.43274 0.24183-0.8273 0.54729-1.2219 0.90367-0.38183 0.35638-0.67457 0.70002-0.89094 1.0309-0.38183 0.57275-0.61093 1.2728-0.6873 2.1001-0.08909 0.8273 0.01273 1.451 0.26728 1.8582 0.08909 0.14 0.19092 0.21637 0.29274 0.24183 0.08909 0.01273 0.29274 0.01273 0.5982-0.01273 0.4582-0.05091 0.8273-0.17819 1.1328-0.38183 0.2291-0.15273 0.50911-0.42001 0.86548-0.80184 0.34365-0.38183 0.58547-0.6873 0.72548-0.92912 0.10182-0.17819 0.19092-0.26728 0.25455-0.26728 0.10182 0.01273 0.20364 0.25455 0.30546 0.71275 0.05091 0.29274 0.12728 0.52184 0.21637 0.70002 0.07637 0.16546 0.2291 0.35638 0.43274 0.54729 0.31819 0.30546 0.62366 0.48365 0.87821 0.54729 0.26728 0.05091 0.76366 0.03818 1.4764-0.05091 0.10182-0.01273 0.57275-0.17819 0.63638-0.20364 0.12728-0.05091 0.24183-0.14 0.35638-0.19092 0.21637-0.08909 0.43274-0.20364 0.62366-0.34365 0.33092-0.21637 0.95458-0.57275 0.95458-1.0309 0-0.50911-0.33092-0.49638-0.70002-0.21637zm-6.6311-0.50911c-0.58547 0.76366-1.0055 1.1455-1.2473 1.1709-0.20364 0.02545-0.29274-0.21637-0.29274-0.73821 0-0.40729 0.06364-0.76366 0.17819-1.0309 0.11455-0.26728 0.3691-0.62366 0.75093-1.0564s0.73821-0.75093 1.0691-0.9673c0.26728-0.19092 0.53456-0.29274 0.81457-0.29274 0.29274-0.012728 0.44547 0.076366 0.48365 0.25455 0.03818 0.25455-0.54729 1.1455-1.7564 2.6601z"/>
 </g>
</svg>
